<svg version="1.1" id="Layer_1" xmlns="http://www.w3.org/2000/svg" xmlns:xlink="http://www.w3.org/1999/xlink" x="0px" y="0px"
	 width="100%" viewBox="0 0 1024 672" enable-background="new 0 0 1024 672" xml:space="preserve">
<path fill="#000000" opacity="1.000000" stroke="none" 
	d="
M536.752563,319.489777 
	C538.259949,309.586639 535.604736,300.698792 532.421753,291.930176 
	C531.571350,289.587463 529.778870,289.068146 527.658691,290.673492 
	C527.127686,291.075592 526.541382,291.435211 526.102173,291.923798 
	C513.697693,305.722382 498.076538,315.992981 485.181610,329.265564 
	C480.600616,333.980743 478.747772,339.134491 480.726410,345.531372 
	C481.113159,346.781616 481.268646,348.143372 481.286072,349.456970 
	C481.304993,350.878174 481.831329,352.712402 480.017639,353.401337 
	C478.161224,354.106567 477.433533,352.567139 476.691162,351.214996 
	C474.993561,348.123077 473.134491,348.880219 471.245728,351.047760 
	C470.371613,352.050934 469.586517,353.166718 468.575989,354.009491 
	C465.439056,356.625702 463.777100,356.047913 462.628845,352.268768 
	C459.070129,352.268768 455.571045,352.427856 452.096161,352.206757 
	C450.137451,352.082123 447.913696,351.535645 447.614136,349.049774 
	C447.338501,346.762695 449.282166,346.042816 450.971161,345.273499 
	C454.001404,343.893188 457.080872,342.606995 460.038849,341.085266 
	C464.659241,338.708282 467.787018,334.882355 470.031311,330.260345 
	C477.687592,314.492889 488.630859,301.186584 500.685638,288.615814 
	C507.111053,281.915375 513.189148,274.812103 518.772766,267.400024 
	C522.188904,262.865204 525.982849,258.695221 529.523315,254.294189 
	C532.954773,250.028656 537.981140,250.087524 542.778625,249.741989 
	C546.596802,249.467010 550.318054,249.072403 553.634094,246.568375 
	C552.101685,242.225250 549.807007,238.542831 548.618958,234.375015 
	C546.591980,227.263641 547.769836,220.941238 553.473999,216.246658 
	C559.466614,211.314667 566.486572,210.339691 573.630920,213.740814 
	C580.621338,217.068665 583.023254,223.258911 583.120972,230.579422 
	C583.144958,232.375748 582.874878,234.176010 582.683594,236.726089 
	C586.877380,235.357925 590.387817,233.408264 591.793518,229.986633 
	C598.041687,214.778778 608.985718,202.284500 615.888367,187.450287 
	C618.336975,182.187927 619.276733,178.133438 615.648560,172.796310 
	C609.020752,163.046783 609.904480,150.794662 616.747559,142.512711 
	C624.218323,133.471069 637.142395,130.117630 648.014465,134.399750 
	C658.975586,138.716919 665.715210,148.679382 665.306885,159.961243 
	C664.843750,172.758041 652.942383,184.240295 638.539368,184.975739 
	C632.495422,185.284348 628.925171,187.814087 626.717285,193.107056 
	C623.640198,200.483704 621.133057,208.199173 617.198853,215.094620 
	C610.515747,226.808304 606.940430,239.924576 599.981384,251.457397 
	C596.271851,257.604889 595.996338,265.179413 591.700439,271.173401 
	C590.855652,272.352173 591.982178,274.998535 592.304871,276.950653 
	C595.000977,293.261261 592.588745,309.101624 588.088745,324.787415 
	C586.991638,328.611542 586.356873,332.569611 585.543152,336.473083 
	C585.265381,337.805359 585.265564,339.180695 586.022705,340.355011 
	C588.757874,344.597229 591.175476,348.784180 590.058716,354.286469 
	C589.651245,356.294250 591.888672,357.627930 593.685181,358.644714 
	C608.841309,367.222351 621.853577,378.146088 631.266418,393.011200 
	C631.797180,393.849457 632.436890,394.649963 633.153137,395.334961 
	C654.108398,415.375946 669.008911,440.271210 687.077271,462.625519 
	C687.880676,463.619537 688.695496,464.940796 688.753174,466.145630 
	C689.083862,473.054199 690.550720,474.595398 697.523438,475.622437 
	C699.805359,475.958527 702.428406,476.427765 702.570557,479.515991 
	C706.125000,479.615112 707.318298,476.167419 710.471741,475.161255 
	C710.586487,478.970612 707.453308,480.024414 705.957214,482.143921 
	C709.016052,484.303192 712.491150,484.225861 715.865356,483.512360 
	C722.055298,482.203339 728.539978,483.328674 734.612976,480.969391 
	C736.726868,480.148163 738.463928,481.434509 739.570374,483.369171 
	C741.017090,485.898895 739.317810,487.319214 737.726929,488.895813 
	C727.529541,499.001648 714.523132,504.402374 701.734985,509.991760 
	C690.525635,514.890991 689.173523,518.685181 683.170044,502.638458 
	C675.341553,481.713440 659.810791,466.928589 643.296326,453.057892 
	C637.957275,448.573517 633.403931,443.745636 630.137878,437.610046 
	C628.655579,434.825439 626.770508,432.257233 625.110107,429.565002 
	C621.109558,423.078369 615.535400,419.157959 608.203857,416.490814 
	C587.984619,409.135223 569.071228,398.852417 550.246338,388.522003 
	C545.902893,386.138489 542.624268,385.753418 537.895813,387.939545 
	C519.187500,396.588928 500.168488,404.564423 481.303223,412.877197 
	C476.735992,414.889648 472.105957,416.894104 467.868744,419.495148 
	C456.080963,426.731049 444.154175,433.701508 431.924774,440.165466 
	C429.437744,441.480011 427.062073,443.104828 424.893311,444.898834 
	C421.584167,447.636230 418.474213,450.370911 413.820312,447.633636 
	C412.782745,447.023376 411.418518,447.356598 410.488647,448.090485 
	C404.578918,452.754486 397.314789,455.393524 391.897369,460.832886 
	C387.002411,465.747681 381.587097,469.526306 374.029572,469.593292 
	C370.694580,469.622864 367.393738,471.609161 364.045898,472.600739 
	C360.435181,473.670288 356.832306,473.589233 353.255798,472.291992 
	C348.690979,470.636261 346.063080,467.333893 345.866150,462.596832 
	C345.673706,457.966400 348.278625,454.662842 352.452515,452.885376 
	C357.816223,450.601257 363.359192,448.805450 369.081909,447.577759 
	C372.330505,446.880890 375.619415,446.188171 378.408813,444.194061 
	C380.335663,442.816498 381.805206,441.566681 381.318787,438.528290 
	C380.688080,434.588348 386.223419,430.318481 389.562408,432.124023 
	C393.766815,434.397430 397.013977,433.053040 400.044617,430.461761 
	C405.486511,425.808807 410.827606,421.026642 416.026520,416.103821 
	C421.915558,410.527527 428.555695,406.117554 436.028809,403.107605 
	C445.156799,399.431091 453.847137,394.729797 462.471741,390.195892 
	C469.134491,386.693359 474.250580,380.090820 480.693481,375.632874 
	C493.122772,367.032867 503.834198,355.956909 517.964966,349.804016 
	C519.792542,349.008270 520.552429,347.286011 521.154602,345.520813 
	C522.229492,342.370026 523.334717,339.228119 524.332092,336.052612 
	C526.124634,330.345673 528.574097,325.193909 534.391418,322.414398 
	C535.335754,321.963165 535.907776,320.732697 536.752563,319.489777 
z"/>
<path fill="#000000" opacity="1.000000" stroke="none" 
	d="
M433.455933,220.506592 
	C453.892365,219.272079 467.838654,231.803696 468.219666,252.070389 
	C468.801758,283.028290 462.141388,312.665314 448.769470,340.435638 
	C436.485168,365.947205 411.632629,377.040649 384.121246,374.070984 
	C370.933350,372.647400 361.396606,360.816559 359.611938,345.777069 
	C357.851746,330.944031 361.158081,316.657654 363.732758,302.301300 
	C366.586975,286.386322 370.808990,270.881989 378.132538,256.299561 
	C389.519043,233.627075 408.170563,222.399139 433.455933,220.506592 
M398.121765,310.427734 
	C396.721191,317.467255 395.916748,324.563446 396.287842,331.749664 
	C396.691010,339.556976 402.413239,342.461639 409.035583,338.198975 
	C412.660736,335.865570 415.043457,332.362854 416.722809,328.544281 
	C425.528595,308.521362 429.961639,287.492950 430.636871,265.664459 
	C430.746643,262.115936 430.411316,258.263672 426.663086,256.651886 
	C422.824310,255.001236 419.135956,256.388641 415.985565,258.987122 
	C412.126526,262.170105 410.047821,266.583405 408.129272,271.006775 
	C402.787689,283.322144 400.431519,296.427063 398.121765,310.427734 
z"/>
<path fill="#000000" opacity="1.000000" stroke="none" 
	d="
M362.246552,265.912598 
	C361.515930,268.993530 359.163055,269.175262 357.104401,269.657837 
	C348.685425,271.631470 340.280060,273.682312 331.808838,275.405762 
	C327.579987,276.266083 325.092438,277.961670 324.616577,282.680969 
	C324.039124,288.407593 322.683228,294.055756 321.539032,300.435364 
	C332.245941,298.095245 342.339142,295.889282 352.693726,293.626190 
	C353.607513,298.261871 351.802887,301.825684 351.277466,305.518188 
	C350.505310,310.944427 349.277893,316.306641 348.532898,321.735687 
	C348.149811,324.527374 346.775238,325.682373 344.173340,326.311279 
	C336.253876,328.225677 328.407715,330.444244 320.483856,332.338715 
	C317.145325,333.136932 315.515717,334.644897 315.087128,338.311432 
	C314.397217,344.214661 312.935089,350.027649 311.609375,356.856293 
	C324.744141,355.067383 336.741058,351.365967 349.839142,348.945770 
	C348.491272,357.412262 347.260620,365.206238 346.003296,372.995911 
	C345.685760,374.963074 345.291840,376.918152 344.916992,378.875732 
	C344.507019,381.016998 343.392059,382.478333 341.143555,382.982605 
	C317.618378,388.258636 294.097870,393.555267 270.571014,398.823639 
	C270.293884,398.885712 269.950409,398.651581 269.210083,398.424438 
	C268.414551,393.374847 270.366669,388.451599 271.075012,383.482208 
	C274.334930,360.611328 279.696808,338.124878 283.942291,315.431549 
	C287.546448,296.166199 291.224213,276.913361 294.614197,257.610168 
	C295.366577,253.326111 296.778076,251.138840 301.472076,250.161148 
	C321.487793,245.992188 341.386749,241.264160 361.343536,236.808136 
	C363.074646,236.421585 364.816010,235.560959 367.340576,236.336746 
	C365.666595,246.044327 363.989044,255.772552 362.246552,265.912598 
z"/>
<path fill="#000000" opacity="1.000000" stroke="none" 
	d="
M819.387939,316.525726 
	C806.230957,322.832306 792.649048,325.777466 778.497742,326.054565 
	C771.709900,326.187500 770.933228,325.322754 770.873840,318.742157 
	C770.794495,309.945374 770.854187,301.147278 770.854187,292.554138 
	C772.412048,291.278992 773.667358,292.067474 774.896362,292.398163 
	C783.924622,294.827271 792.751953,293.363129 801.447632,290.817047 
	C807.241943,289.120392 811.515686,285.556427 812.636475,279.273560 
	C813.840027,272.527130 810.892944,267.631897 805.268433,264.171143 
	C802.007996,262.165009 798.734009,260.160492 795.344177,258.388550 
	C770.387756,245.343155 770.160217,222.040207 781.822876,202.821915 
	C788.711975,191.469727 799.254272,184.151321 811.181030,178.821930 
	C823.611877,173.267227 836.652466,170.151062 850.305664,169.648026 
	C854.314087,169.500351 855.587952,170.898544 854.882019,174.985703 
	C853.468323,183.170258 852.358704,191.414993 851.403503,199.667267 
	C851.038879,202.817337 850.160461,203.983459 846.729614,203.447037 
	C836.201355,201.800964 826.546692,204.738861 817.662231,210.183090 
	C807.913330,216.157120 807.736816,225.503342 817.292542,231.621399 
	C823.174255,235.387131 829.522278,238.416412 835.503296,242.036697 
	C849.897034,250.749146 854.888550,263.821442 850.317993,280.087799 
	C845.614075,296.828583 835.167603,308.693390 819.387939,316.525726 
z"/>
<path fill="#000000" opacity="1.000000" stroke="none" 
	d="
M205.219757,368.426575 
	C208.908203,349.924896 212.461456,331.831390 216.058319,313.746521 
	C217.346466,307.269836 216.854889,306.712494 210.293259,308.280243 
	C203.175491,309.980865 196.090881,311.820709 188.995544,313.614624 
	C187.391449,314.020203 185.822617,314.669067 183.856171,314.079285 
	C183.737198,313.593018 183.372742,312.949524 183.473267,312.389496 
	C185.469009,301.272400 187.621735,290.182281 189.495880,279.045197 
	C190.077026,275.591705 192.703308,275.560150 194.992966,275.020599 
	C214.085449,270.521179 233.199097,266.111664 252.305557,261.671539 
	C262.830170,259.225769 273.355377,256.782593 283.874664,254.314209 
	C285.493164,253.934418 287.077484,253.393555 288.718445,253.707901 
	C289.412506,254.144669 289.589050,254.749466 289.460846,255.447250 
	C287.510925,266.061096 285.517639,276.667236 283.625824,287.291412 
	C283.172119,289.839355 281.617523,290.826904 279.310822,291.419037 
	C273.189087,292.990540 267.165619,294.997070 260.989777,296.289093 
	C256.155792,297.300385 254.229858,300.005554 253.402328,304.647614 
	C249.147095,328.517426 244.692215,352.351868 240.248398,376.187744 
	C238.635345,384.839813 236.775558,393.446259 235.199524,402.104645 
	C234.561600,405.609253 233.038086,407.564545 229.294479,408.301422 
	C220.000580,410.130890 210.791229,412.389191 201.544724,414.460999 
	C200.122574,414.779663 198.712799,415.516235 196.331726,414.359222 
	C199.229309,399.319305 202.165527,384.078705 205.219757,368.426575 
z"/>
<path fill="#000000" opacity="1.000000" stroke="none" 
	d="
M685.357666,248.474365 
	C681.858459,256.025391 681.193176,263.859558 679.992981,271.556610 
	C678.585266,280.584137 677.164734,289.614532 677.089722,298.792786 
	C676.987244,311.321869 685.246216,316.112305 696.596985,310.129333 
	C698.444702,309.155396 699.833313,307.232941 702.989929,307.175110 
	C701.955261,314.181946 700.953308,320.970215 699.948364,327.758026 
	C699.924133,327.921906 699.858704,328.079224 699.826843,328.242432 
	C696.913696,343.157410 696.919617,343.190491 681.666626,345.853943 
	C676.880005,346.689789 672.003052,346.689331 667.226807,346.010651 
	C655.142212,344.293427 647.977478,335.768158 646.587219,323.191956 
	C645.384583,312.312622 646.567261,301.615845 647.690613,290.890289 
	C649.022156,278.176453 649.901794,265.382080 652.772888,252.884918 
	C653.961304,247.711853 655.334229,242.500137 657.372498,237.618912 
	C662.972046,224.209335 672.320618,214.561996 686.517822,210.114319 
	C694.773132,207.528107 702.966187,204.734665 711.512878,203.218475 
	C712.817566,202.987030 714.141663,202.787094 715.462830,202.738205 
	C726.321350,202.336380 728.091614,204.436676 725.417603,214.707123 
	C723.574097,221.787506 721.606140,228.835663 719.665894,235.890533 
	C719.187195,237.631149 718.890808,239.478775 717.296875,240.965485 
	C705.356750,237.125870 694.103760,236.865814 685.357666,248.474365 
z"/>
<path fill="#000000" opacity="1.000000" stroke="none" 
	d="
M747.198242,265.236450 
	C748.895935,275.041199 753.585938,283.412048 756.597595,292.379303 
	C759.987305,302.472351 763.695679,312.458130 767.217102,322.507507 
	C767.644836,323.728119 768.366638,324.958008 767.759460,326.633026 
	C764.649719,328.860565 760.628357,328.398468 756.978699,329.233582 
	C752.447754,330.270325 747.727173,330.540283 743.255310,331.755402 
	C738.947083,332.926025 737.604309,331.073914 736.860840,327.351074 
	C735.537292,320.723511 733.969238,314.144836 731.575989,307.572876 
	C730.475525,314.860199 729.201172,322.127167 728.343567,329.442993 
	C727.871948,333.466370 726.346252,335.805420 722.107117,336.434357 
	C717.411621,337.130920 712.927795,339.066193 707.399597,339.286743 
	C708.883545,331.274017 710.244507,323.664642 711.708008,316.075043 
	C715.292969,297.483887 718.214722,278.727051 722.732300,260.363861 
	C727.534912,240.842560 733.881592,221.701767 739.513062,202.382889 
	C740.111816,200.328781 741.054443,198.672958 743.194763,198.042709 
	C753.544922,194.994873 763.904541,191.978897 775.953369,188.456848 
	C766.076477,214.747604 756.667725,239.792404 747.198242,265.236450 
z"/>
<path fill="#000000" opacity="1.000000" stroke="none" 
	d="
M614.702637,259.888672 
	C615.726868,251.029114 616.758911,242.626114 617.719116,234.214935 
	C617.945679,232.230347 618.594727,230.584381 620.625305,230.002945 
	C629.532715,227.452377 638.459351,224.969025 647.918518,222.309616 
	C648.580688,228.027893 646.750854,232.747406 646.173279,237.553055 
	C643.698669,258.141083 641.043457,278.708221 638.318848,299.265045 
	C636.356201,314.072632 634.181213,328.852081 632.097961,343.643646 
	C631.730103,346.255798 630.912109,348.398560 627.843567,348.998016 
	C619.719604,350.585083 611.621887,352.306213 602.325806,354.218323 
	C605.157043,322.366302 610.973816,291.480743 614.702637,259.888672 
z"/>
</svg>